# xmcd
# 
# Track frame offsets:
#     150
#     16770
#     39573
#     57126
#     70300
#     90026
#     106509
#     126297
#     141262
#     158551
#     171232
#     191551
#     208793
#     220335
# 
# Disc length: 3193
# 
# Revision: 2
# Processed by: cddbd v1.5.2PL0 Copyright (c) Steve Scherf et al.
# Submitted via: fre:ac v1.0.31
# 
DISCID=b80c770e
DTITLE=The Nitty Gritty Dirt Band - Will The Circle Be Unbroken Vol. III Disc 1
DYEAR=2002
DGENRE=Country
TTITLE0=Take Me In Your Lifeboat
TTITLE1=Milk Cow Blues
TTITLE2=I Find Jesus
TTITLE3=Hold Whatcha Got
TTITLE4=Mama's Opry
TTITLE5=Diamonds In The Rough
TTITLE6=Lonesome River
TTITLE7=Some Dark Holler
TTITLE8=The Lowlands
TTITLE9=Love, Please Come Home
TTITLE10=Goodnight Irene
TTITLE11=I Know What It Means To Be Lonesome
TTITLE12=I'll Be Faithful To You
TTITLE13=Tears In The Holston River
EXTD=
EXTT0=
EXTT1=
EXTT2=
EXTT3=
EXTT4=
EXTT5=
EXTT6=
EXTT7=
EXTT8=
EXTT9=
EXTT10=
EXTT11=
EXTT12=
EXTT13=
PLAYORDER=
